<svg xmlns="http://www.w3.org/2000/svg" fill="none" viewBox="0 0 24 24" id="Climbing-Wall--Streamline-Guidance-Free" height="24" width="24">
  <desc>
    Climbing Wall Streamline Icon: https://streamlinehq.com
  </desc>
  <path stroke="#000000" d="m16 4 -3.621 3.621a3 3 0 0 1 -2.122 0.879H6.5l-2.121 2.121a3 3 0 0 0 -0.879 2.122V16m3 -5v4.556a1.945 1.945 0 0 0 3.32 1.374l3.43 -3.43h0.25l0.296 0.592A7.082 7.082 0 0 0 17.5 17.5m-5.5 0.498a8.859 8.859 0 0 1 -0.056 -0.11l-0.194 -0.388 0.25 0.498Zm0 0A10.623 10.623 0 0 0 17.5 23m2 1 0 -16L17 5.5m-5 -5L14.5 3m-4 5.5v5m-2.805 -7s-1.81 -0.557 -2.135 -1.776a1.768 1.768 0 0 1 1.242 -2.163 1.75 1.75 0 0 1 2.146 1.25c0.324 1.219 -0.962 2.61 -0.962 2.61l-0.291 0.079Z" stroke-width="1"></path>
</svg>